<?xml version="1.0" encoding="UTF-8" standalone="no"?>
<!-- Generator: Adobe Illustrator 18.1.1, SVG Export Plug-In . SVG Version: 6.00 Build 0)  -->

<svg
   xmlns:dc="http://purl.org/dc/elements/1.1/"
   xmlns:cc="http://creativecommons.org/ns#"
   xmlns:rdf="http://www.w3.org/1999/02/22-rdf-syntax-ns#"
   xmlns:svg="http://www.w3.org/2000/svg"
   xmlns="http://www.w3.org/2000/svg"
   xmlns:sodipodi="http://sodipodi.sourceforge.net/DTD/sodipodi-0.dtd"
   xmlns:inkscape="http://www.inkscape.org/namespaces/inkscape"
   version="1.1"
   id="Layer_1"
   x="0px"
   y="0px"
   viewBox="0 0 113.6 113.661"
   enable-background="new 0 0 800 800"
   xml:space="preserve"
   inkscape:version="0.91 r13725"
   sodipodi:docname="box1.svg"
   width="113.6"
   height="113.661"><metadata
     id="metadata71"><rdf:RDF><cc:Work
         rdf:about=""><dc:format>image/svg+xml</dc:format><dc:type
           rdf:resource="http://purl.org/dc/dcmitype/StillImage" /><dc:title /></cc:Work></rdf:RDF></metadata><defs
     id="defs69" /><sodipodi:namedview
     pagecolor="#ffffff"
     bordercolor="#666666"
     borderopacity="1"
     objecttolerance="10"
     gridtolerance="10"
     guidetolerance="10"
     inkscape:pageopacity="0"
     inkscape:pageshadow="2"
     inkscape:window-width="727"
     inkscape:window-height="480"
     id="namedview67"
     showgrid="false"
     inkscape:zoom="1.18"
     inkscape:cx="37.704434"
     inkscape:cy="38.998099"
     inkscape:window-x="340"
     inkscape:window-y="349"
     inkscape:window-maximized="0"
     inkscape:current-layer="g3" /><g
     id="g3"
     transform="translate(-330.50847,-548.20341)"><g
       id="g5"
       style="stroke:#4b4b4b;stroke-opacity:1"><polyline
         stroke-miterlimit="10"
         points="440,576.8 398.4,602.4 398.4,657.6   "
         id="polyline7"
         style="fill:none;stroke:#4b4b4b;stroke-width:8;stroke-miterlimit:10;stroke-opacity:1" /><g
         id="g9"
         style="stroke:#4b4b4b;stroke-opacity:1"><polygon
           stroke-miterlimit="10"
           points="398.4,657.6 334.4,634.4 334.4,579.2 376.8,552.8 440,576.8 440,632 "
           id="polygon11"
           style="fill:none;stroke:#4b4b4b;stroke-width:8;stroke-miterlimit:10;stroke-opacity:1" /><line
           stroke-miterlimit="10"
           x1="334.39999"
           y1="579.20001"
           x2="398.39999"
           y2="602.40002"
           id="line13"
           style="fill:none;stroke:#4b4b4b;stroke-width:8;stroke-miterlimit:10;stroke-opacity:1" /><line
           stroke-miterlimit="10"
           x1="356"
           y1="565.59998"
           x2="417.60001"
           y2="588.79999"
           id="line15"
           style="fill:none;stroke:#4b4b4b;stroke-width:8;stroke-miterlimit:10;stroke-opacity:1" /></g></g><polyline
       points="356,621.6 356,635.2 340.8,629.6 340.8,616.8  "
       id="polyline17"
       style="stroke:#4b4b4b;stroke-opacity:1;fill:#4b4b4b;fill-opacity:1"
       transform="translate(1.4981076,-0.59924304)" /></g><g
     id="g19"
     transform="translate(925.42373,-1316.8475)"><polygon
       stroke-miterlimit="10"
       points="211.6,375.6 211.6,435.6 162,453.2 110,435.6 110,375.6 162,359.6 "
       id="polygon21"
       style="fill:none;stroke:#000000;stroke-width:8;stroke-miterlimit:10" /><line
       stroke-miterlimit="10"
       x1="162"
       y1="359.60001"
       x2="162"
       y2="453.20001"
       id="line23"
       style="fill:none;stroke:#000000;stroke-width:8;stroke-miterlimit:10" /><polygon
       points="142.8,367.6 127.6,373.2 127.6,384.4 142.8,380.4 "
       id="polygon25" /><polygon
       points="197.2,372.4 181.2,367.6 181.2,380.4 197.2,384.4 "
       id="polygon27" /><polygon
       points="154.8,422.8 140.4,420.4 140.4,438 154.8,442 "
       id="polygon29" /></g><g
     id="g31"
     transform="translate(386.44068,-1449.0509)"><polygon
       stroke-miterlimit="10"
       points="328,427.2 398.4,460.8 446.4,424 446.4,385.6 375.2,351.2 328,387.2 "
       id="polygon33"
       style="fill:none;stroke:#000000;stroke-width:8;stroke-miterlimit:10" /><polyline
       stroke-miterlimit="10"
       points="398.4,460.8 398.4,420.8 328,387.2  "
       id="polyline35"
       style="fill:none;stroke:#000000;stroke-width:8;stroke-miterlimit:10" /><line
       stroke-miterlimit="10"
       x1="398.39999"
       y1="420.79999"
       x2="446.39999"
       y2="385.60001"
       id="line37"
       style="fill:none;stroke:#000000;stroke-width:8;stroke-miterlimit:10" /><polyline
       stroke-miterlimit="10"
       points="375.2,351.2 375.2,385.6 420,406.4  "
       id="polyline39"
       style="fill:none;stroke:#000000;stroke-width:8;stroke-miterlimit:10" /><line
       stroke-miterlimit="10"
       x1="375.20001"
       y1="385.60001"
       x2="355.20001"
       y2="400"
       id="line41"
       style="fill:none;stroke:#000000;stroke-width:8;stroke-miterlimit:10" /></g><g
     id="g43"
     transform="translate(1061.0169,-201.59324)"><polygon
       stroke-miterlimit="10"
       points="645.6,370.4 596.8,356 584,371.2 568.8,356 519.2,370.4 539.2,387.2 519.2,406.4 539.2,412 539.2,440 584,453.6 627.2,442.4 625.6,410.4 643.2,406.4 628,389.6 "
       id="polygon45"
       style="fill:none;stroke:#000000;stroke-width:8;stroke-miterlimit:10" /><polyline
       stroke-miterlimit="10"
       points="584,453.6 584,399.2 628,389.6  "
       id="polyline47"
       style="fill:none;stroke:#000000;stroke-width:8;stroke-miterlimit:10" /><line
       stroke-miterlimit="10"
       x1="539.20001"
       y1="387.20001"
       x2="584"
       y2="399.20001"
       id="line49"
       style="fill:none;stroke:#000000;stroke-width:8;stroke-miterlimit:10" /><line
       stroke-miterlimit="10"
       x1="584"
       y1="376"
       x2="628"
       y2="387.20001"
       id="line51"
       style="fill:none;stroke:#000000;stroke-width:8;stroke-miterlimit:10" /><line
       stroke-miterlimit="10"
       x1="586.40002"
       y1="376"
       x2="540.79999"
       y2="387.20001"
       id="line53"
       style="fill:none;stroke:#000000;stroke-width:8;stroke-miterlimit:10" /><polyline
       stroke-miterlimit="10"
       points="539.2,412 568,417.6 582.4,402.4    599.2,417.6 623.2,411.2  "
       id="polyline55"
       style="fill:none;stroke:#000000;stroke-width:8;stroke-miterlimit:10" /></g><g
     id="g57"
     transform="translate(596.61017,-923.62714)"><polygon
       points="600,196 615.2,196 627.2,210.4 627.2,251.2 541.6,251.2 541.6,211.2 554.4,196 568,196 561.6,188 548.8,188 532.8,209.6 532.8,258.4 635.2,258.4 635.2,209.6 618.4,188 605.6,188 "
       id="polygon59" /><rect
       x="540.79999"
       y="211.2"
       width="88"
       height="5.5999999"
       id="rect61" /><polygon
       points="584,203.2 604.8,177.6 563.2,177.6 "
       id="polygon63" /><polyline
       points="571.2,179.2 571.2,136 595.2,136 595.2,179.2  "
       id="polyline65" /></g></svg>