<?xml version="1.0" encoding="UTF-8" standalone="no"?>
<!-- Generator: Adobe Illustrator 18.1.1, SVG Export Plug-In . SVG Version: 6.00 Build 0)  -->

<svg
   xmlns:dc="http://purl.org/dc/elements/1.1/"
   xmlns:cc="http://creativecommons.org/ns#"
   xmlns:rdf="http://www.w3.org/1999/02/22-rdf-syntax-ns#"
   xmlns:svg="http://www.w3.org/2000/svg"
   xmlns="http://www.w3.org/2000/svg"
   xmlns:sodipodi="http://sodipodi.sourceforge.net/DTD/sodipodi-0.dtd"
   xmlns:inkscape="http://www.inkscape.org/namespaces/inkscape"
   version="1.1"
   id="Layer_1"
   x="0px"
   y="0px"
   viewBox="0 0 203.162 283.06201"
   enable-background="new 0 0 300 300"
   xml:space="preserve"
   inkscape:version="0.91 r13725"
   sodipodi:docname="pin_grey.svg"
   width="203.162"
   height="283.06201"><metadata
     id="metadata25"><rdf:RDF><cc:Work
         rdf:about=""><dc:format>image/svg+xml</dc:format><dc:type
           rdf:resource="http://purl.org/dc/dcmitype/StillImage" /><dc:title /></cc:Work></rdf:RDF></metadata><defs
     id="defs23" /><sodipodi:namedview
     pagecolor="#ffffff"
     bordercolor="#666666"
     borderopacity="1"
     objecttolerance="10"
     gridtolerance="10"
     guidetolerance="10"
     inkscape:pageopacity="0"
     inkscape:pageshadow="2"
     inkscape:window-width="1623"
     inkscape:window-height="1026"
     id="namedview21"
     showgrid="false"
     borderlayer="true"
     inkscape:zoom="0.78666667"
     inkscape:cx="-69.279661"
     inkscape:cy="150"
     inkscape:window-x="57"
     inkscape:window-y="24"
     inkscape:window-maximized="1"
     inkscape:current-layer="Layer_1" /><path
     d="m 100.39492,282.60437 c -15.300005,-43.7 -47.600005,-78.3 -72.800005,-117.4 -7.1,-11 -13.9,-22.4 -19.0999997,-34.4 -17,-38.999997 -7.4,-78.199997 24.8999997,-106.099997 58.3,-50.3 151.400005,-21.3000001 168.100005,52.5 4.8,21.3 0,41.299997 -9.7,60.299997 -4.7,9.2 -9.8,18.4 -15.6,26.9 -13.3,19.4 -27.8,38 -40.5,57.8 -12.7,19.7 -23.7,40.3 -35.3,60.4 z M 55.494915,92.804373 c -0.3,25.299997 20.4,46.399997 45.700005,46.599997 24.6,0.2 46.2,-20.2 46.5,-43.899997 0.4,-27.9 -19.2,-49.1 -45.7,-49.4 -25.700005,-0.4 -46.200005,20.3 -46.500005,46.7 z"
     id="path5"
     style="fill:#4b4b4b;fill-opacity:1"
     inkscape:connector-curvature="0" /><g
     id="g9"
     transform="translate(0,-16.938)" /><g
     id="g11"
     transform="translate(0,-16.938)" /><g
     id="g13"
     transform="translate(0,-16.938)" /><g
     id="g15"
     transform="translate(0,-16.938)" /><g
     id="g17"
     transform="translate(0,-16.938)" /><g
     id="g19"
     transform="translate(0,-16.938)" /></svg>